<?xml version="1.0" encoding="windows-1252"?><svg xmlns="http://www.w3.org/2000/svg" viewBox="98 96 757 946" xmlns:latexdraw="http://latexdraw.sourceforge.net/namespaces/latexdraw" version="1.1" baseProfile="full">
    <g>
        <g latexdraw:type="square" id="id974727115">
            <rect x="135.0" y="231.0" width="98.0" height="98.0" latexdraw:borderPos="outer" stroke="black" stroke-width="2.0" fill="white"/>
        </g>
        <g latexdraw:type="text" id="id630279763" fill="black" latexdraw:position="bl">
            <text x="164.0" y="281.0">Guest</text>
        </g>
        <g latexdraw:type="circle" id="id63441781">
            <circle cx="428.0" cy="274.0" r="67.0" latexdraw:borderPos="outer" stroke="black" stroke-width="2.0" fill="white"/>
        </g>
        <g latexdraw:type="text" id="id704770692" fill="black" latexdraw:position="bl">
            <text x="412.0" y="258.0">Hotel</text>
        </g>
        <g latexdraw:type="text" id="id1662756862" fill="black" latexdraw:position="bl">
            <text x="398.0" y="284.0">Reservation</text>
        </g>
        <g latexdraw:type="rectangle" id="id531298379">
            <rect x="362.0" y="128.0" width="139.0" height="39.0" latexdraw:borderPos="outer" stroke="black" stroke-width="2.0" fill="white"/>
        </g>
        <g latexdraw:type="circle" id="id1882144897">
            <circle cx="665.0" cy="165.0" r="48.0" latexdraw:borderPos="outer" stroke="black" stroke-width="2.0" fill="white"/>
        </g>
        <g latexdraw:type="circle" id="id231017690">
            <circle cx="672.0" cy="401.0" r="50.0" latexdraw:borderPos="outer" stroke="black" stroke-width="2.0" fill="white"/>
        </g>
        <g latexdraw:type="ellipse" id="id1368658186">
            <ellipse cx="424.0" cy="427.0" rx="62.0" ry="32.0" latexdraw:borderPos="outer" stroke="black" stroke-width="2.0" fill="white"/>
        </g>
        <g latexdraw:type="rectangle" id="id29748842">
            <rect x="287.0" y="491.0" width="112.0" height="34.0" latexdraw:borderPos="outer" stroke="black" stroke-width="2.0" fill="white"/>
        </g>
        <g latexdraw:type="rectangle" id="id1142353669">
            <rect x="424.0" y="491.0" width="115.0" height="35.0" latexdraw:borderPos="outer" stroke="black" stroke-width="2.0" fill="white"/>
        </g>
        <g latexdraw:type="joinedLines" id="id297542468">
            <polyline points="402.0,211.0 401.0,166.0 395.0,176.0 401.0,167.0 407.0,176.0 407.0,176.0 " stroke="black" stroke-width="2.0" fill="white" latexdraw:rotationAngle="0.0"/>
        </g>
        <g latexdraw:type="joinedLines" id="id1443096632">
            <polyline points="441.0,167.0 442.0,209.0 449.0,195.0 441.0,207.0 435.0,196.0 440.0,206.0 440.0,206.0 " stroke="black" stroke-width="2.0" fill="white" latexdraw:rotationAngle="0.0"/>
        </g>
        <g latexdraw:type="akinPoints" id="id1915901037" latexdraw:pathType="CURVES" latexdraw:interval="2" latexdraw:points="491.0 252.0 492.0 255.0 495.0 257.0 499.0 258.0 508.0 261.0 515.0 262.0 528.0 261.0 535.0 259.0 540.0 257.0 541.0 256.0 548.0 251.0 553.0 247.0 557.0 244.0 560.0 240.0 562.0 237.0 564.0 235.0 565.0 233.0 566.0 231.0 567.0 228.0 568.0 225.0 569.0 222.0 571.0 219.0 572.0 216.0 573.0 215.0 574.0 211.0 575.0 207.0 576.0 205.0 577.0 203.0 578.0 201.0 579.0 200.0 580.0 196.0 581.0 193.0 582.0 191.0 583.0 189.0 584.0 186.0 585.0 184.0 587.0 183.0 588.0 180.0 589.0 179.0 590.0 178.0 592.0 177.0 593.0 175.0 596.0 174.0 597.0 173.0 599.0 172.0 602.0 171.0 605.0 170.0 607.0 169.0 609.0 168.0 612.0 167.0 614.0 166.0 619.0 165.0 ">
            <path d="M 491.0 252.0 L 493.0 254.5 C 494.0 255.75 498.25 258.0 501.5 259.0 C 504.75 260.0 513.0 261.0 518.0 261.0 C 523.0 261.0 531.0 260.0 534.0 259.0 C 537.0 258.0 542.0 255.5 544.0 254.0 C 546.0 252.5 550.25 249.25 552.5 247.5 C 554.75 245.75 558.25 242.25 559.5 240.5 C 560.75 238.75 562.75 236.0 563.5 235.0 C 564.25 234.0 565.5 231.75 566.0 230.5 C 566.5 229.25 567.5 226.5 568.0 225.0 C 568.5 223.5 569.75 220.5 570.5 219.0 C 571.25 217.5 572.5 214.75 573.0 213.5 C 573.5 212.25 574.5 209.5 575.0 208.0 C 575.5 206.5 576.5 204.0 577.0 203.0 C 577.5 202.0 578.5 199.75 579.0 198.5 C 579.5 197.25 580.5 194.75 581.0 193.5 C 581.5 192.25 582.5 189.75 583.0 188.5 C 583.5 187.25 584.75 185.25 585.5 184.5 C 586.25 183.75 587.5 182.0 588.0 181.0 C 588.5 180.0 589.75 178.5 590.5 178.0 C 591.25 177.5 593.0 176.25 594.0 175.5 C 595.0 174.75 596.75 173.5 597.5 173.0 C 598.25 172.5 600.5 171.5 602.0 171.0 C 603.5 170.5 606.0 169.5 607.0 169.0 C 608.0 168.5 610.25 167.5 611.5 167.0 C 612.75 166.5 615.25 165.75 619.0 165.0" stroke="black" stroke-width="2.0" fill="white"/>
        </g>
        <g latexdraw:type="akinPoints" id="id1064001467" latexdraw:pathType="CURVES" latexdraw:interval="2" latexdraw:points="492.0 296.0 ">
            <path d="M 492.0 296.0" stroke="black" stroke-width="2.0" fill="white"/>
        </g>
        <g latexdraw:type="akinPoints" id="id371879842" latexdraw:pathType="CURVES" latexdraw:interval="2" latexdraw:points="617.0 163.0 ">
            <path d="M 617.0 163.0" stroke="black" stroke-width="2.0" fill="white"/>
        </g>
        <g latexdraw:type="akinPoints" id="id267662055" latexdraw:pathType="CURVES" latexdraw:interval="2" latexdraw:points="623.0 163.0 ">
            <path d="M 623.0 163.0" stroke="black" stroke-width="2.0" fill="white"/>
        </g>
        <g latexdraw:type="akinPoints" id="id1341821636" latexdraw:pathType="CURVES" latexdraw:interval="2" latexdraw:points="835.0 229.0 834.0 245.0 ">
            <path d="M 835.0 229.0" stroke="black" stroke-width="2.0" fill="white"/>
        </g>
        <g latexdraw:type="akinPoints" id="id1137010829" latexdraw:pathType="CURVES" latexdraw:interval="2" latexdraw:points="617.0 165.0 629.0 164.0 ">
            <path d="M 617.0 165.0" stroke="black" stroke-width="2.0" fill="white"/>
        </g>
        <g latexdraw:type="akinPoints" id="id1285096084" latexdraw:pathType="CURVES" latexdraw:interval="2" latexdraw:points="492.0 289.0 500.0 288.0 505.0 287.0 510.0 286.0 516.0 285.0 539.0 286.0 549.0 288.0 551.0 289.0 560.0 293.0 568.0 297.0 576.0 301.0 581.0 305.0 584.0 307.0 587.0 309.0 588.0 310.0 592.0 314.0 593.0 315.0 597.0 318.0 598.0 319.0 600.0 321.0 602.0 324.0 604.0 327.0 605.0 328.0 606.0 329.0 608.0 332.0 610.0 335.0 611.0 336.0 613.0 339.0 614.0 341.0 616.0 344.0 617.0 346.0 618.0 347.0 619.0 349.0 620.0 350.0 621.0 352.0 622.0 354.0 623.0 355.0 624.0 358.0 625.0 360.0 626.0 361.0 627.0 365.0 628.0 367.0 629.0 368.0 630.0 371.0 ">
            <path d="M 492.0 289.0 L 498.5 288.0 C 501.75 287.5 507.75 286.5 510.5 286.0 C 513.25 285.5 524.25 285.75 532.5 286.5 C 540.75 287.25 551.75 289.25 554.5 290.5 C 557.25 291.75 564.0 295.0 568.0 297.0 C 572.0 299.0 578.0 302.5 580.0 304.0 C 582.0 305.5 585.0 307.75 586.0 308.5 C 587.0 309.25 589.25 311.25 590.5 312.5 C 591.75 313.75 594.25 316.0 595.5 317.0 C 596.75 318.0 599.0 320.25 600.0 321.5 C 601.0 322.75 602.75 325.0 603.5 326.0 C 604.25 327.0 605.75 329.0 606.5 330.0 C 607.25 331.0 608.75 333.0 609.5 334.0 C 610.25 335.0 611.75 337.25 612.5 338.5 C 613.25 339.75 614.75 342.25 615.5 343.5 C 616.25 344.75 617.5 346.75 618.0 347.5 C 618.5 348.25 619.5 349.75 620.0 350.5 C 620.5 351.25 621.5 352.75 622.0 353.5 C 622.5 354.25 623.5 356.25 624.0 357.5 C 624.5 358.75 625.5 361.25 626.0 362.5 C 626.5 363.75 627.5 365.75 628.0 366.5 C 628.5 367.25 629.25 368.75 630.0 371.0" stroke="black" stroke-width="2.0" fill="white"/>
        </g>
        <g latexdraw:type="joinedLines" id="id1127116902">
            <polyline points="421.0,393.0 419.0,342.0 410.0,353.0 419.0,343.0 427.0,350.0 " stroke="black" stroke-width="2.0" fill="white" latexdraw:rotationAngle="0.0"/>
        </g>
        <g latexdraw:type="joinedLines" id="id1537288786">
            <polyline points="374.0,446.0 373.0,489.0 372.0,489.0 " stroke="black" stroke-width="2.0" fill="white" latexdraw:rotationAngle="0.0"/>
        </g>
        <g latexdraw:type="joinedLines" id="id920038759">
            <polyline points="373.0,447.0 366.0,460.0 374.0,447.0 " stroke="black" stroke-width="2.0" fill="white" latexdraw:rotationAngle="0.0"/>
        </g>
        <g latexdraw:type="joinedLines" id="id439850104">
            <polyline points="374.0,447.0 382.0,456.0 " stroke="black" stroke-width="2.0" fill="white" latexdraw:rotationAngle="0.0"/>
        </g>
        <g latexdraw:type="joinedLines" id="id937002265">
            <polyline points="390.0,454.0 390.0,491.0 380.0,481.0 389.0,489.0 399.0,481.0 " stroke="black" stroke-width="2.0" fill="white" latexdraw:rotationAngle="0.0"/>
        </g>
        <g latexdraw:type="joinedLines" id="id1203606155">
            <polyline points="429.0,489.0 428.0,460.0 421.0,469.0 427.0,461.0 435.0,469.0 " stroke="black" stroke-width="2.0" fill="white" latexdraw:rotationAngle="0.0"/>
        </g>
        <g latexdraw:type="joinedLines" id="id1665312860">
            <polyline points="446.0,456.0 448.0,493.0 440.0,481.0 446.0,490.0 448.0,493.0 457.0,480.0 " stroke="black" stroke-width="2.0" fill="white" latexdraw:rotationAngle="0.0"/>
        </g>
        <g latexdraw:type="joinedLines" id="id1001096545">
            <polyline points="231.0,261.0 362.0,256.0 " stroke="black" stroke-width="2.0" fill="white" latexdraw:rotationAngle="0.0"/>
        </g>
        <g latexdraw:type="joinedLines" id="id1448055454">
            <polyline points="360.0,254.0 349.0,246.0 360.0,255.0 351.0,265.0 350.0,265.0 " stroke="black" stroke-width="2.0" fill="white" latexdraw:rotationAngle="0.0"/>
        </g>
        <g latexdraw:type="akinPoints" id="id2091594733" latexdraw:pathType="CURVES" latexdraw:interval="2" latexdraw:points="232.0 301.0 236.0 300.0 246.0 299.0 268.0 300.0 271.0 301.0 282.0 303.0 289.0 305.0 295.0 307.0 302.0 309.0 306.0 311.0 309.0 313.0 312.0 314.0 315.0 316.0 317.0 317.0 319.0 319.0 322.0 320.0 324.0 322.0 327.0 323.0 328.0 324.0 330.0 325.0 331.0 326.0 333.0 327.0 335.0 328.0 336.0 329.0 337.0 330.0 339.0 331.0 341.0 333.0 344.0 334.0 345.0 336.0 346.0 337.0 348.0 338.0 349.0 340.0 350.0 341.0 352.0 343.0 353.0 345.0 354.0 346.0 355.0 348.0 357.0 349.0 358.0 352.0 359.0 353.0 360.0 355.0 361.0 356.0 362.0 359.0 364.0 362.0 366.0 367.0 367.0 370.0 368.0 371.0 369.0 372.0 370.0 374.0 371.0 375.0 372.0 380.0 373.0 382.0 374.0 384.0 375.0 387.0 376.0 390.0 377.0 391.0 378.0 394.0 379.0 396.0 380.0 399.0 ">
            <path d="M 232.0 301.0 L 239.0 300.0 C 242.5 299.5 252.25 299.5 258.5 300.0 C 264.75 300.5 275.5 302.0 280.0 303.0 C 284.5 304.0 292.25 306.0 295.5 307.0 C 298.75 308.0 303.75 310.0 305.5 311.0 C 307.25 312.0 310.5 313.75 312.0 314.5 C 313.5 315.25 316.0 316.75 317.0 317.5 C 318.0 318.25 320.25 319.75 321.5 320.5 C 322.75 321.25 325.0 322.5 326.0 323.0 C 327.0 323.5 328.75 324.5 329.5 325.0 C 330.25 325.5 332.0 326.5 333.0 327.0 C 334.0 327.5 335.5 328.5 336.0 329.0 C 336.5 329.5 338.0 330.75 339.0 331.5 C 340.0 332.25 342.0 333.75 343.0 334.5 C 344.0 335.25 345.75 336.5 346.5 337.0 C 347.25 337.5 348.5 338.75 349.0 339.5 C 349.5 340.25 350.75 342.0 351.5 343.0 C 352.25 344.0 353.5 345.75 354.0 346.5 C 354.5 347.25 355.75 349.0 356.5 350.0 C 357.25 351.0 358.5 352.75 359.0 353.5 C 359.5 354.25 360.5 356.0 361.0 357.0 C 361.5 358.0 363.0 361.0 364.0 363.0 C 365.0 365.0 366.5 368.0 367.0 369.0 C 367.5 370.0 368.5 371.75 369.0 372.5 C 369.5 373.25 370.5 375.5 371.0 377.0 C 371.5 378.5 372.5 381.0 373.0 382.0 C 373.5 383.0 374.5 385.5 375.0 387.0 C 375.5 388.5 376.5 391.0 377.0 392.0 C 377.5 393.0 378.5 395.25 379.0 396.5" stroke="black" stroke-width="2.0" fill="white"/>
        </g>
        <g latexdraw:type="akinPoints" id="id128471442" latexdraw:pathType="CURVES" latexdraw:interval="2" latexdraw:points="378.0 391.0 379.0 395.0 380.0 398.0 ">
            <path d="M 378.0 391.0 L 379.0 394.5" stroke="black" stroke-width="2.0" fill="white"/>
        </g>
        <g latexdraw:type="joinedLines" id="id466167614">
            <polyline points="380.0,395.0 382.0,378.0 379.0,395.0 363.0,388.0 363.0,388.0 " stroke="black" stroke-width="2.0" fill="white" latexdraw:rotationAngle="0.0"/>
        </g>
        <g latexdraw:type="joinedLines" id="id1646895112">
            <polyline points="617.0,164.0 604.0,159.0 616.0,166.0 610.0,176.0 610.0,176.0 " stroke="black" stroke-width="2.0" fill="white" latexdraw:rotationAngle="0.0"/>
        </g>
        <g latexdraw:type="joinedLines" id="id276474165">
            <polyline points="630.0,369.0 631.0,355.0 631.0,370.0 616.0,369.0 " stroke="black" stroke-width="2.0" fill="white" latexdraw:rotationAngle="0.0"/>
        </g>
        <g latexdraw:type="text" id="id1917816590" fill="black" latexdraw:position="bl">
            <text x="380.0" y="149.0">Reservation storage</text>
        </g>
        <g latexdraw:type="text" id="id1387416804" fill="black" latexdraw:position="bl">
            <text x="404.0" y="427.0">Inquiry</text>
        </g>
        <g latexdraw:type="text" id="id1361167576" fill="black" latexdraw:position="bl">
            <text x="296.0" y="510.0">Down Storage</text>
        </g>
        <g latexdraw:type="text" id="id1936200592" fill="black" latexdraw:position="bl">
            <text x="439.0" y="515.0">Up Storage</text>
        </g>
        <g latexdraw:type="text" id="id486978226" fill="black" latexdraw:position="bl">
            <text x="651.0" y="383.0">Report </text>
        </g>
        <g latexdraw:type="text" id="id2098133069" fill="black" latexdraw:position="bl">
            <text x="657.0" y="399.0">To</text>
        </g>
        <g latexdraw:type="text" id="id1174581288" fill="black" latexdraw:position="bl">
            <text x="650.0" y="410.0">Admin</text>
        </g>
        <g latexdraw:type="text" id="id1714238961" fill="black" latexdraw:position="bl">
            <text x="647.0" y="153.0">Room</text>
        </g>
        <g latexdraw:type="text" id="id63054827" fill="black" latexdraw:position="bl">
            <text x="639.0" y="170.0">Selection</text>
        </g>
        <g latexdraw:type="rectangle" id="id1176318122">
            <rect x="119.0" y="771.0" width="90.0" height="30.0" latexdraw:borderPos="outer" stroke="black" stroke-width="2.0" fill="white"/>
        </g>
        <g latexdraw:type="circle" id="id897861329">
            <circle cx="384.0" cy="781.0" r="60.0" latexdraw:borderPos="outer" stroke="black" stroke-width="2.0" fill="white"/>
        </g>
        <g latexdraw:type="rectangle" id="id1868616773">
            <rect x="616.0" y="677.0" width="103.0" height="27.0" latexdraw:borderPos="outer" stroke="black" stroke-width="2.0" fill="white"/>
        </g>
        <g latexdraw:type="rectangle" id="id1024700398">
            <rect x="617.0" y="744.0" width="105.0" height="25.0" latexdraw:borderPos="outer" stroke="black" stroke-width="2.0" fill="white"/>
        </g>
        <g latexdraw:type="rectangle" id="id1606068874">
            <rect x="618.0" y="797.0" width="101.0" height="30.0" latexdraw:borderPos="outer" stroke="black" stroke-width="2.0" fill="white"/>
        </g>
        <g latexdraw:type="rectangle" id="id1059129435">
            <rect x="621.0" y="855.0" width="98.0" height="33.0" latexdraw:borderPos="outer" stroke="black" stroke-width="2.0" fill="white"/>
        </g>
        <g latexdraw:type="joinedLines" id="id143843616">
            <polyline points="589.0,688.0 588.0,687.0 615.0,687.0 515.0,690.0 430.0,740.0 429.0,730.0 430.0,741.0 440.0,743.0 " stroke="black" stroke-width="2.0" fill="white" latexdraw:rotationAngle="0.0"/>
        </g>
        <g latexdraw:type="joinedLines" id="id1909496794">
            <polyline points="597.0,754.0 616.0,754.0 441.0,761.0 441.0,761.0 " stroke="black" stroke-width="2.0" fill="white" latexdraw:rotationAngle="0.0"/>
        </g>
        <g latexdraw:type="joinedLines" id="id2057614082">
            <polyline points="440.0,759.0 447.0,754.0 439.0,764.0 441.0,761.0 449.0,765.0 450.0,767.0 " stroke="black" stroke-width="2.0" fill="white" latexdraw:rotationAngle="0.0"/>
        </g>
        <g latexdraw:type="joinedLines" id="id928300114">
            <polyline points="617.0,812.0 488.0,811.0 446.0,786.0 445.0,786.0 447.0,796.0 444.0,786.0 452.0,781.0 452.0,781.0 " stroke="black" stroke-width="2.0" fill="white" latexdraw:rotationAngle="0.0"/>
        </g>
        <g latexdraw:type="joinedLines" id="id1918464475">
            <polyline points="436.0,809.0 618.0,872.0 616.0,864.0 620.0,872.0 610.0,878.0 611.0,876.0 " stroke="black" stroke-width="2.0" fill="white" latexdraw:rotationAngle="0.0"/>
        </g>
        <g latexdraw:type="rectangle" id="id499008139">
            <rect x="332.0" y="888.0" width="105.0" height="34.0" latexdraw:borderPos="outer" stroke="black" stroke-width="2.0" fill="white"/>
        </g>
        <g latexdraw:type="joinedLines" id="id134783">
            <polyline points="354.0,885.0 385.0,841.0 368.0,849.0 381.0,844.0 383.0,842.0 382.0,858.0 385.0,856.0 " stroke="black" stroke-width="2.0" fill="white" latexdraw:rotationAngle="0.0"/>
        </g>
        <g latexdraw:type="joinedLines" id="id447815205">
            <polyline points="350.0,922.0 386.0,961.0 387.0,948.0 387.0,963.0 373.0,964.0 373.0,964.0 " stroke="black" stroke-width="2.0" fill="white" latexdraw:rotationAngle="0.0"/>
        </g>
        <g latexdraw:type="ellipse" id="id553508079">
            <ellipse cx="420.5" cy="989.5" rx="50.5" ry="31.5" latexdraw:borderPos="outer" stroke="black" stroke-width="2.0" fill="white"/>
        </g>
        <g latexdraw:type="joinedLines" id="id211256801">
            <polyline points="470.0,986.0 673.0,982.0 673.0,889.0 665.0,898.0 672.0,888.0 681.0,899.0 681.0,899.0 " stroke="black" stroke-width="2.0" fill="white" latexdraw:rotationAngle="0.0"/>
        </g>
        <g latexdraw:type="joinedLines" id="id368031512">
            <polyline points="208.0,772.0 323.0,774.0 315.0,763.0 324.0,775.0 311.0,785.0 311.0,782.0 " stroke="black" stroke-width="2.0" fill="white" latexdraw:rotationAngle="0.0"/>
        </g>
        <g latexdraw:type="joinedLines" id="id1990643187">
            <polyline points="208.0,799.0 325.0,798.0 319.0,789.0 325.0,794.0 326.0,799.0 311.0,810.0 311.0,810.0 " stroke="black" stroke-width="2.0" fill="white" latexdraw:rotationAngle="0.0"/>
        </g>
        <g latexdraw:type="joinedLines" id="id311563990">
            <polyline points="348.0,829.0 349.0,853.0 193.0,853.0 193.0,803.0 186.0,813.0 193.0,801.0 199.0,812.0 197.0,810.0 " stroke="black" stroke-width="2.0" fill="white" latexdraw:rotationAngle="0.0"/>
        </g>
        <g latexdraw:type="joinedLines" id="id1895922198">
            <polyline points="165.0,801.0 165.0,959.0 365.0,972.0 " stroke="black" stroke-width="2.0" fill="white" latexdraw:rotationAngle="0.0"/>
        </g>
        <g latexdraw:type="joinedLines" id="id1144223234">
            <polyline points="365.0,972.0 373.0,973.0 367.0,960.0 372.0,973.0 358.0,981.0 358.0,981.0 " stroke="black" stroke-width="2.0" fill="white" latexdraw:rotationAngle="0.0"/>
        </g>
        <g latexdraw:type="joinedLines" id="id1209020850">
            <polyline points="370.0,997.0 129.0,986.0 131.0,801.0 139.0,814.0 130.0,802.0 120.0,815.0 120.0,815.0 " stroke="black" stroke-width="2.0" fill="white" latexdraw:rotationAngle="0.0"/>
        </g>
        <g latexdraw:type="joinedLines" id="id1426015837">
            <polyline points="166.0,846.0 163.0,960.0 336.0,970.0 336.0,971.0 " stroke="black" stroke-width="2.0" fill="white" latexdraw:rotationAngle="0.0"/>
        </g>
        <g latexdraw:type="joinedLines" id="id365283879">
            <polyline points="191.0,821.0 191.0,852.0 228.0,853.0 228.0,853.0 " stroke="black" stroke-width="2.0" fill="white" latexdraw:rotationAngle="0.0"/>
        </g>
        <g latexdraw:type="text" id="id1243844101" fill="black" latexdraw:position="bl">
            <text x="134.0" y="786.0">Student</text>
        </g>
        <g latexdraw:type="text" id="id896851276" fill="black" latexdraw:position="bl">
            <text x="354.0" y="775.0">Dilevery of</text>
        </g>
        <g latexdraw:type="text" id="id853506263" fill="black" latexdraw:position="bl">
            <text x="370.0" y="790.0">Book</text>
        </g>
        <g latexdraw:type="text" id="id41641057" fill="black" latexdraw:position="bl">
            <text x="638.0" y="696.0">Book Shelves</text>
        </g>
        <g latexdraw:type="text" id="id1175904425" fill="black" latexdraw:position="bl">
            <text x="634.0" y="761.0">List of Author</text>
        </g>
        <g latexdraw:type="text" id="id1199639066" fill="black" latexdraw:position="bl">
            <text x="634.0" y="814.0">List of Titles</text>
        </g>
        <g latexdraw:type="text" id="id1081522167" fill="black" latexdraw:position="bl">
            <text x="628.0" y="875.0">Display of Books</text>
        </g>
        <g latexdraw:type="text" id="id887023692" fill="black" latexdraw:position="bl">
            <text x="529.0" y="682.0">books</text>
        </g>
        <g latexdraw:type="text" id="id153028933" fill="black" latexdraw:position="bl">
            <text x="532.0" y="747.0">author</text>
        </g>
        <g latexdraw:type="text" id="id397701883" fill="black" latexdraw:position="bl">
            <text x="541.0" y="805.0">titles</text>
        </g>
        <g latexdraw:type="text" id="id1643120309" fill="black" latexdraw:position="bl">
            <text x="451.0" y="858.0">Demanded of books</text>
        </g>
        <g latexdraw:type="text" id="id696748812" fill="black" latexdraw:position="bl">
            <text x="378.0" y="990.0">Search by Topic</text>
        </g>
        <g latexdraw:type="text" id="id1444071530" fill="black" latexdraw:position="bl">
            <text x="339.0" y="907.0">List of topic</text>
        </g>
        <g latexdraw:type="text" id="id1267747041" fill="black" latexdraw:position="bl">
            <text x="225.0" y="766.0">Book Request</text>
        </g>
        <g latexdraw:type="text" id="id81079724" fill="black" latexdraw:position="bl">
            <text x="229.0" y="793.0">library card</text>
        </g>
        <g latexdraw:type="text" id="id662268518" fill="black" latexdraw:position="bl">
            <text x="231.0" y="844.0">Book</text>
        </g>
        <g latexdraw:type="text" id="id1948580361" fill="black" latexdraw:position="bl">
            <text x="227.0" y="953.0">Book Request</text>
        </g>
        <g latexdraw:type="text" id="id118249961" fill="black" latexdraw:position="bl">
            <text x="166.0" y="978.0">Book</text>
        </g>
        <g latexdraw:type="text" id="id1075933672" fill="black" latexdraw:position="bl">
            <text x="148.0" y="996.0">Based on topic</text>
        </g>
    </g>
    <defs/>
    <metadata>
        <latexdraw:metadata>
            <latexdraw:centreHoriz>false</latexdraw:centreHoriz>
            <latexdraw:positionVert/>
            <latexdraw:zoom>1.0</latexdraw:zoom>
            <latexdraw:vpx>0.5</latexdraw:vpx>
            <latexdraw:vpy>0.51</latexdraw:vpy>
        </latexdraw:metadata>
    </metadata>
</svg>
